<svg width="24" height="24" viewBox="0 0 24 24" fill="none" xmlns="http://www.w3.org/2000/svg">
<path fill-rule="evenodd" clip-rule="evenodd" d="M9.99997 2C7.79083 2 5.99997 3.79086 5.99997 6V8H0.867188L2.1792 18.4961C2.42942 20.4979 4.13102 22 6.14832 22H17.8516C19.8689 22 21.5705 20.4979 21.8207 18.4961L23.1328 8H18V6C18 3.79086 16.2091 2 14 2H9.99997ZM13 9C13 8.44772 12.5523 8 12 8H7.99997V6C7.99997 4.89543 8.8954 4 9.99997 4H14C15.1045 4 16 4.89543 16 6V10H20.8672L19.8362 18.2481C19.7111 19.2489 18.8603 20 17.8516 20H6.14832C5.13967 20 4.28887 19.2489 4.16376 18.2481L3.13275 10H12C12.5523 10 13 9.55228 13 9Z" fill="#808D9A"/>
</svg>
